<?xml version="1.0" standalone="no"?>
<!DOCTYPE svg PUBLIC "-//W3C//DTD SVG 20010904//EN"
 "http://www.w3.org/TR/2001/REC-SVG-20010904/DTD/svg10.dtd">
<svg version="1.0" xmlns="http://www.w3.org/2000/svg"
 width="1260.000000pt" height="1260.000000pt" viewBox="0 0 1260.000000 1260.000000"
 preserveAspectRatio="xMidYMid meet">

<g transform="translate(0.000000,1260.000000) scale(0.100000,-0.100000)"
fill="#000000" stroke="none">
<path d="M6000 11837 c-101 -36 -158 -74 -250 -166 -94 -94 -148 -182 -175
-287 -43 -167 9 -348 136 -469 33 -32 53 -58 46 -60 -351 -119 -707 -305
-1035 -538 -457 -326 -927 -789 -1224 -1207 -391 -551 -473 -966 -217 -1096
128 -65 294 -69 574 -14 319 62 515 36 705 -93 25 -17 106 -90 180 -162 74
-72 152 -145 174 -162 l39 -31 -104 -53 c-446 -223 -1024 -671 -1443 -1117
-301 -321 -506 -604 -660 -912 -123 -247 -187 -461 -202 -680 -6 -85 7 -254
22 -293 4 -11 -10 -16 -57 -20 -191 -20 -515 -112 -699 -199 -390 -183 -667
-469 -782 -808 -117 -346 -56 -745 170 -1095 330 -514 998 -943 1852 -1189 46
-13 59 -22 75 -52 148 -275 1065 -440 2345 -421 212 3 469 11 571 18 161 10
211 10 360 -5 96 -9 260 -21 364 -28 254 -15 1020 -15 1270 0 877 56 1407 192
1544 398 17 26 29 49 27 51 -2 2 -36 12 -77 23 -121 33 -369 113 -369 119 0 3
54 25 120 49 534 190 1028 460 1437 782 129 102 383 352 477 470 204 256 347
537 407 799 26 113 35 323 19 432 -14 100 -51 222 -92 304 -103 205 -301 395
-526 505 -39 19 -71 40 -71 45 -1 6 125 278 279 605 154 327 283 602 286 612
5 17 -34 18 -915 18 l-920 0 -60 88 c-114 166 -235 308 -429 501 l-195 195
-172 420 c-137 335 -175 420 -191 422 -10 1 -52 12 -92 23 -76 21 -257 51
-310 51 -24 0 -43 12 -84 53 -60 61 -122 87 -202 87 -86 -1 -166 -51 -182
-116 -3 -12 -24 -36 -46 -54 l-40 -32 -39 17 c-21 10 -39 20 -39 23 0 2 28 38
62 81 171 212 290 455 351 716 69 293 66 626 -8 956 -182 813 -792 1581 -1312
1652 -67 9 -82 14 -78 27 16 41 23 161 14 243 -19 167 -96 377 -169 461 -109
123 -283 168 -440 113z m710 -1562 c197 -60 330 -209 391 -440 30 -114 37
-323 15 -436 -46 -229 -176 -424 -336 -502 -57 -28 -74 -32 -150 -32 -71 0
-94 4 -143 27 -119 56 -278 198 -399 357 l-49 65 43 44 43 44 -93 -47 c-123
-61 -172 -67 -246 -31 -142 70 -181 295 -63 366 42 26 126 26 200 1 l56 -19
28 36 c15 20 89 98 164 172 151 149 186 205 209 330 7 36 14 71 17 79 5 19
236 9 313 -14z m511 -554 c16 -47 7 -142 -17 -177 l-19 -29 -6 115 c-3 63 -9
131 -13 150 l-8 35 26 -30 c14 -16 30 -45 37 -64z m54 -500 c38 -18 93 -66 84
-75 -16 -16 -108 -43 -120 -35 -20 12 -96 11 -122 -2 -12 -7 -35 -23 -51 -36
-16 -13 -30 -22 -32 -20 -3 2 11 30 31 62 19 32 39 73 45 91 11 33 13 34 68
34 34 0 73 -8 97 -19z m-1110 -149 c44 -46 109 -106 145 -132 62 -46 201 -120
226 -120 7 0 14 -38 18 -107 7 -104 21 -228 32 -286 l6 -27 -69 5 c-37 3 -171
12 -298 20 -126 9 -246 18 -265 21 l-36 5 23 122 c12 67 22 134 23 150 0 26
-2 27 -47 27 -27 0 -53 4 -59 8 -7 4 -18 33 -26 64 l-15 56 98 -1 c53 -1 100
1 104 4 3 4 1 27 -5 50 -12 42 -7 227 7 274 5 17 8 16 32 -15 14 -19 62 -73
106 -118z m-372 52 c27 -9 66 -35 93 -60 44 -43 88 -120 78 -136 -3 -5 -35 -5
-72 -2 -53 6 -75 13 -103 36 -44 35 -102 45 -163 28 -39 -11 -50 -9 -105 10
-34 13 -60 28 -58 34 6 19 97 75 146 90 62 19 128 19 184 0z m1657 -44 c11
-23 18 -45 15 -50 -10 -17 -83 -50 -108 -50 -17 0 -32 12 -50 38 l-25 37 67
32 c36 17 69 32 73 32 4 1 17 -17 28 -39z m-1987 -110 c42 -16 80 -30 86 -30
19 0 10 -14 -35 -54 l-44 -38 -53 26 c-30 14 -61 34 -70 44 -15 16 -14 20 9
50 14 17 27 32 29 32 2 0 37 -13 78 -30z m1560 -15 l-15 -45 -54 0 -55 0 43
43 c28 28 53 44 70 45 l27 2 -16 -45z m-1373 -529 c295 -33 886 -75 1295 -91
83 -3 168 -8 191 -11 l41 -5 23 -72 c15 -50 24 -108 27 -193 5 -106 3 -131
-16 -190 -31 -101 -30 -100 -87 -75 l-49 22 55 -56 c30 -30 61 -55 70 -55 8
-1 110 -45 225 -98 l210 -98 7 -63 c9 -77 22 -120 53 -165 23 -33 23 -36 9
-83 -22 -70 -14 -184 18 -254 19 -42 23 -60 16 -79 -6 -14 -8 -61 -6 -105 4
-78 18 -119 72 -215 8 -14 30 -59 49 -101 66 -146 141 -201 310 -224 l48 -6
-3 -147 -3 -147 -164 -3 c-91 -1 -168 1 -172 5 -4 5 -33 132 -64 283 -31 151
-63 282 -71 290 -12 12 -16 12 -29 -1 -13 -13 -9 -44 40 -277 30 -145 55 -272
55 -282 0 -19 -8 -20 -178 -20 l-178 0 -544 -1155 c-386 -820 -548 -1154 -557
-1151 -8 3 -188 112 -401 242 -213 130 -427 261 -476 290 l-88 54 -457 106
c-251 59 -460 110 -465 114 -4 5 62 505 149 1120 86 611 154 1117 151 1125 -6
17 -32 20 -41 4 -4 -6 -76 -459 -161 -1007 -84 -548 -156 -1014 -160 -1035
l-6 -38 -44 72 c-64 103 -118 164 -209 236 -249 197 -617 287 -920 224 -121
-25 -165 -44 -165 -72 0 -18 4 -21 33 -16 17 2 68 15 112 27 105 29 319 32
440 6 180 -39 335 -110 461 -210 107 -84 175 -169 234 -291 84 -174 94 -106
-96 -631 -91 -252 -168 -460 -169 -462 -6 -6 -268 66 -385 106 -605 205 -950
502 -1057 908 -33 127 -37 338 -9 478 70 353 282 749 625 1165 131 159 525
553 696 695 516 429 1020 728 1387 823 56 15 104 27 105 28 1 0 -8 28 -21 60
-69 173 -58 483 25 675 21 49 24 51 53 46 17 -3 92 -12 166 -20z m2375 -750
c28 -12 56 -30 63 -38 11 -13 -6 -16 -140 -21 -84 -3 -154 -4 -156 -2 -10 9
23 47 56 64 50 27 116 26 177 -3z m195 -117 c139 -12 302 -44 349 -67 33 -16
41 -31 139 -272 246 -607 293 -723 345 -870 50 -142 137 -416 137 -433 0 -4
-210 -6 -467 -5 l-468 3 0 170 0 169 -87 12 c-147 19 -212 65 -271 192 -16 34
-27 65 -25 67 8 8 254 -16 381 -37 131 -21 157 -18 144 15 -10 25 -222 61
-442 75 l-120 7 -25 50 c-18 37 -26 70 -28 126 -6 117 -4 118 223 99 66 -6
172 -20 235 -32 156 -28 155 -28 155 2 0 23 -6 26 -80 42 -117 25 -325 48
-437 48 l-96 0 -19 48 c-21 55 -24 191 -5 235 11 27 12 27 114 27 114 0 320
-21 440 -46 43 -8 82 -12 88 -9 16 10 11 43 -7 49 -92 27 -347 57 -515 60
l-132 2 -25 49 c-19 37 -26 64 -26 112 0 84 17 102 111 112 103 12 284 12 414
0z m1181 -1379 c90 -111 189 -248 189 -261 0 -5 -77 -9 -170 -9 -167 0 -171 0
-179 23 -5 12 -28 83 -51 157 -23 74 -66 205 -97 290 -30 85 -57 164 -60 175
-6 27 274 -259 368 -375z m2019 -322 c0 -2 -310 -660 -688 -1463 l-688 -1460
-1968 -3 c-1661 -2 -1967 0 -1964 12 2 7 311 666 687 1465 l684 1451 1968 0
c1083 0 1969 -1 1969 -2z m-6511 -1609 l436 -101 90 -55 c50 -30 266 -162 480
-294 215 -132 396 -244 403 -248 9 -5 -2 -37 -43 -125 l-55 -117 -38 22 c-153
94 -494 311 -621 397 -85 56 -160 101 -168 98 -7 -3 -13 -15 -13 -26 0 -22
229 -177 595 -405 105 -65 196 -124 204 -131 12 -11 6 -29 -38 -121 -28 -59
-55 -109 -59 -111 -5 -1 -185 110 -401 248 -224 143 -399 249 -407 246 -46
-18 -10 -45 366 -285 209 -134 380 -246 380 -250 0 -3 -20 -18 -44 -33 -43
-28 -45 -28 -215 -28 -172 0 -172 0 -264 35 -51 19 -160 66 -242 105 -143 68
-154 72 -235 76 -351 18 -774 144 -887 266 l-23 24 131 359 c207 572 200 555
216 555 9 0 212 -45 452 -101z m-695 -1191 c583 -226 1064 -416 1068 -421 10
-16 -2 -37 -23 -37 -10 0 -472 176 -1026 391 -554 215 -1032 400 -1060 411
-35 14 -53 27 -53 38 0 19 9 30 23 30 5 0 487 -185 1071 -412z m3606 -185 c-1
-10 -876 -366 -912 -371 -23 -4 -28 0 -28 16 0 12 6 24 13 29 6 4 190 81 407
170 362 148 400 162 458 162 34 1 62 -2 62 -6z m-2016 -183 c101 -26 224 -84
347 -165 84 -55 98 -68 90 -83 -14 -26 -140 -144 -191 -179 -284 -193 -672
-226 -1007 -86 -46 19 -85 39 -88 43 -8 13 327 333 400 382 156 103 289 129
449 88z m1026 -282 c0 -24 9 -371 20 -773 10 -401 17 -732 14 -736 -7 -12
-171 -47 -319 -68 -358 -51 -884 -76 -1415 -68 -446 7 -737 26 -1063 69 -82
11 -88 13 -82 32 41 140 48 180 52 311 3 99 0 162 -10 215 -8 41 -14 75 -14
76 270 151 512 335 770 583 l135 131 74 -35 c430 -198 947 -106 1248 222 l62
68 181 5 c100 3 219 7 265 8 l82 2 0 -42z m-2856 -1000 c36 -171 20 -382 -39
-525 l-13 -31 -144 30 c-265 55 -491 144 -568 223 -18 19 -32 36 -29 38 2 3
68 23 146 45 175 51 373 126 518 197 61 29 113 54 116 54 4 1 10 -14 13 -31z
m5197 -179 c46 -17 144 -48 218 -70 74 -21 137 -42 140 -45 12 -12 -86 -87
-164 -124 -129 -63 -362 -130 -536 -155 l-47 -7 -16 49 c-41 124 -59 280 -33
287 201 62 316 94 333 95 11 1 58 -13 105 -30z m-497 -158 c3 -37 17 -108 31
-156 14 -48 23 -90 21 -93 -15 -14 -402 -55 -701 -74 -361 -22 -1407 -9 -1500
19 -12 4 30 14 99 25 140 21 271 55 291 75 11 10 67 18 197 28 493 39 1040
123 1418 219 143 36 136 38 144 -43z"/>
<path d="M5747 9604 c-29 -13 -37 -21 -35 -38 2 -16 9 -20 28 -18 89 11 114
12 93 2 -25 -10 -31 -39 -10 -44 6 -2 38 -11 70 -21 74 -24 91 -12 62 41 -42
79 -130 111 -208 78z"/>
<path d="M5517 7683 c-17 -16 -4 -36 36 -53 214 -95 1044 -162 1091 -88 19 32
-3 37 -117 29 -253 -18 -732 34 -924 100 -60 20 -76 23 -86 12z"/>
<path d="M8681 4616 c-181 -65 -209 -319 -46 -421 43 -27 57 -30 125 -30 68 0
82 3 126 30 160 100 144 337 -30 416 -47 21 -124 23 -175 5z"/>
</g>
</svg>
