<?xml version="1.0" standalone="no"?>
<!DOCTYPE svg PUBLIC "-//W3C//DTD SVG 20010904//EN"
 "http://www.w3.org/TR/2001/REC-SVG-20010904/DTD/svg10.dtd">
<svg version="1.0" xmlns="http://www.w3.org/2000/svg"
 width="1046.000000pt" height="1192.000000pt" viewBox="0 0 1046.000000 1192.000000"
 preserveAspectRatio="xMidYMid meet">

<g transform="translate(0.000000,1192.000000) scale(0.100000,-0.100000)"
fill="#000000" stroke="none">
<path d="M210 11911 c-83 -26 -142 -75 -182 -151 l-23 -45 0 -5020 0 -5020 31
-55 c17 -30 50 -70 73 -87 87 -67 -53 -63 2050 -62 1048 0 1902 2 1896 4 -5 3
-107 19 -225 37 -146 22 -264 33 -368 36 l-152 3 6 23 c4 19 1 24 -19 28 -21
4 -26 0 -31 -24 l-6 -28 -1517 2 -1518 3 -47 27 c-35 21 -53 41 -72 81 l-26
52 2 4997 3 4996 30 43 c17 23 48 52 70 63 l40 21 4985 3 c4522 2 4989 1 5027
-13 52 -20 109 -81 123 -133 7 -28 9 -1539 8 -5018 -3 -4663 -4 -4981 -20
-5010 -24 -44 -81 -91 -125 -103 -25 -7 -322 -11 -876 -11 l-838 0 -24 53
c-12 29 -44 98 -70 153 l-48 99 -9 -36 c-8 -33 -4 -48 45 -155 117 -256 209
-526 259 -757 29 -137 32 -359 5 -429 -34 -88 -114 -131 -180 -97 -114 60
-252 258 -336 481 -27 74 -93 230 -146 348 -53 118 -106 236 -117 263 -16 36
-26 47 -43 47 -21 0 -23 -4 -19 -39 6 -68 140 -393 260 -632 160 -321 189
-671 62 -749 -82 -50 -156 -32 -253 64 -94 92 -255 350 -255 408 0 30 -98 321
-159 468 -80 196 -182 410 -195 410 -6 0 -17 -4 -25 -9 -11 -7 -11 -17 4 -60
9 -29 15 -54 13 -56 -2 -2 -28 41 -58 95 -30 55 -58 100 -62 100 -6 0 163
-384 214 -485 14 -27 49 -108 78 -180 29 -71 76 -180 105 -241 60 -127 81
-232 73 -352 -11 -157 -104 -238 -214 -186 -133 61 -353 398 -474 724 -52 141
-109 275 -200 478 -22 47 -38 71 -46 68 -13 -5 -25 11 -88 127 -21 38 -40 67
-42 64 -2 -2 20 -55 50 -118 29 -63 79 -181 111 -264 32 -82 93 -229 135 -325
43 -96 87 -213 99 -260 72 -296 42 -430 -96 -430 -188 1 -495 396 -773 997
l-69 148 -68 -5 c-152 -11 -478 -3 -588 14 -219 34 -463 114 -621 202 l-62 35
-22 -28 -22 -28 29 -5 c15 -3 55 -19 88 -36 294 -153 645 -223 1047 -211 l187
6 110 -222 c306 -619 572 -930 781 -915 71 5 115 35 144 97 17 38 21 64 20
154 l-1 108 20 -33 c133 -220 254 -360 340 -393 99 -37 195 2 242 100 22 43
29 75 33 146 l5 90 55 -83 c130 -194 267 -284 378 -248 136 44 190 197 151
425 -9 49 -15 90 -14 92 2 1 24 -27 50 -62 103 -139 219 -196 306 -151 43 23
87 79 107 138 30 84 25 306 -9 463 -29 130 -86 321 -135 452 l-30 82 846 3
c839 3 847 3 893 24 58 27 116 85 143 143 l21 46 3 4990 c2 4430 0 4995 -13
5042 -20 70 -69 130 -135 167 l-55 31 -5005 2 c-2753 1 -5016 -2 -5030 -6z"/>
<path d="M5205 11124 c-11 -2 -45 -9 -75 -15 -293 -59 -574 -357 -694 -737
-14 -46 -26 -91 -26 -101 0 -9 -21 -60 -46 -112 -194 -397 -305 -894 -274
-1226 6 -66 19 -155 30 -199 l19 -79 -25 -73 c-46 -138 -114 -255 -265 -454
-245 -323 -326 -504 -375 -838 -26 -178 -16 -346 35 -590 50 -239 63 -418 38
-517 -30 -116 -100 -232 -191 -316 -29 -27 -34 -35 -16 -26 14 6 59 46 100 88
81 81 134 169 167 276 24 79 24 324 -1 475 -33 203 -38 275 -33 410 10 230 64
437 164 630 47 91 173 284 180 276 2 -1 -19 -47 -47 -102 -152 -305 -206 -543
-181 -791 6 -63 32 -212 58 -331 40 -188 46 -234 47 -342 1 -114 -2 -132 -27
-202 -16 -42 -48 -108 -72 -147 -24 -39 -42 -71 -40 -71 2 0 53 72 114 159
211 304 457 621 674 867 180 206 404 393 572 479 49 25 95 45 102 45 7 0 13 4
13 9 0 5 24 17 53 27 148 48 325 151 470 272 126 104 244 251 329 407 l43 80
7 -60 c4 -33 10 -212 14 -398 l7 -338 81 -41 c158 -80 280 -175 426 -333 392
-424 665 -833 996 -1497 l114 -227 56 -7 c59 -7 231 -1 241 9 3 3 -17 37 -43
74 -74 103 -98 142 -147 239 -138 277 -160 481 -96 909 41 273 47 530 15 675
-57 262 -166 484 -353 714 -137 170 -136 171 26 11 184 -181 265 -284 336
-430 76 -155 95 -236 102 -427 6 -181 -2 -263 -57 -559 -69 -366 -72 -478 -19
-641 39 -116 180 -363 235 -409 8 -6 -17 53 -55 132 -113 232 -146 382 -122
550 7 46 35 178 62 292 73 305 90 418 91 587 3 422 -149 698 -587 1066 -261
220 -362 324 -443 461 -74 124 -78 151 -57 422 43 562 10 902 -112 1151 -65
130 -179 248 -302 309 -55 27 -107 63 -150 104 -85 80 -177 140 -318 210 -61
30 -131 66 -155 80 -64 38 -204 92 -299 116 -80 20 -270 36 -314 25z m186
-886 c-45 -21 -240 -60 -361 -73 -82 -9 -101 -18 -72 -34 51 -27 155 -43 322
-48 203 -6 326 10 539 72 68 19 126 33 128 31 3 -2 -2 -38 -11 -80 -39 -190
-43 -412 -11 -584 21 -106 32 -119 34 -36 1 38 7 107 14 154 l13 85 12 -150
c16 -202 59 -363 127 -479 l26 -45 -59 -58 c-56 -54 -64 -68 -121 -210 -33
-84 -61 -160 -61 -168 0 -28 42 -99 77 -133 l35 -33 -38 -47 c-148 -182 -348
-314 -562 -368 -235 -60 -530 -30 -751 76 -472 227 -641 743 -471 1439 51 208
135 444 212 594 l24 49 245 3 c230 2 415 16 644 50 117 17 118 17 66 -7z m606
-500 c-3 -8 -6 -5 -6 6 -1 11 2 17 5 13 3 -3 4 -12 1 -19z m544 -614 c29 -26
41 -83 30 -141 -34 -177 -206 -425 -336 -484 -22 -10 -64 -19 -93 -19 -73 0
-124 28 -158 86 l-27 46 59 146 c64 159 84 188 177 258 162 122 289 161 348
108z m-697 -976 c-143 -200 -370 -380 -597 -474 -45 -18 -87 -34 -92 -34 -6 0
-22 70 -36 155 l-25 155 61 0 c157 0 327 37 462 100 87 41 214 123 253 165 45
48 32 15 -26 -67z"/>
<path d="M4630 9972 c-39 -21 -48 -47 -27 -76 18 -24 149 -34 187 -14 33 18
38 58 10 83 -31 28 -125 32 -170 7z"/>
<path d="M4845 9768 c-43 -83 -88 -176 -101 -207 -22 -53 -23 -54 -24 -23 0
47 -26 91 -57 98 -16 5 -46 1 -74 -9 -66 -24 -77 -22 -102 21 l-22 37 -3 -42
c-4 -51 10 -81 44 -93 22 -9 24 -14 18 -44 -14 -77 36 -144 99 -132 l32 6 -24
-20 c-27 -23 -15 -27 16 -5 18 13 15 0 -23 -101 -24 -64 -44 -122 -44 -130 0
-11 16 -14 69 -14 l69 0 -28 -87 -29 -88 37 -16 c21 -9 51 -36 69 -62 35 -48
100 -87 147 -87 56 0 96 75 83 157 -4 19 -8 37 -10 39 -2 3 -32 -3 -67 -12
-73 -18 -200 -12 -200 11 0 7 15 53 34 101 19 49 32 93 29 98 -3 5 -34 6 -69
3 -35 -4 -64 -4 -64 -2 0 13 63 175 133 340 67 161 157 395 157 410 0 3 -4 5
-9 5 -5 0 -44 -68 -86 -152z m130 -920 c-14 -50 -71 -73 -109 -45 -16 12 -16
13 1 29 20 17 68 36 96 37 14 1 17 -4 12 -21z"/>
<path d="M5358 9899 c-19 -10 -23 -45 -10 -66 14 -22 153 -84 173 -78 35 11
42 42 19 80 -35 57 -135 92 -182 64z"/>
<path d="M5252 9415 c-37 -31 -62 -101 -62 -172 0 -45 4 -57 31 -85 28 -29 29
-30 10 -4 -26 35 -27 55 -3 33 10 -10 34 -17 53 -17 40 0 80 36 96 85 8 26 15
31 53 35 37 4 48 11 67 39 32 48 31 68 -3 42 -39 -30 -70 -26 -107 13 -58 62
-90 69 -135 31z"/>
<path d="M4975 8720 c-36 -24 -57 -25 -96 -4 -39 20 -52 9 -20 -17 49 -40 109
-37 137 6 22 34 15 39 -21 15z"/>
<path d="M6385 8991 c-102 -25 -234 -143 -292 -261 -32 -66 -53 -150 -37 -150
5 0 31 25 57 55 63 71 97 89 156 81 l46 -6 -25 20 c-30 24 -80 26 -122 4 l-30
-16 33 49 c76 110 142 166 248 209 47 20 51 23 26 23 -16 -1 -43 -4 -60 -8z"/>
<path d="M5039 7482 c-88 -44 -189 -114 -237 -165 l-33 -34 16 -68 c63 -272
223 -464 436 -520 198 -53 523 37 923 256 154 84 366 217 366 229 0 13 -148
148 -215 195 -58 42 -222 134 -237 135 -4 0 -11 -19 -14 -41 -22 -135 -374
-456 -592 -541 -102 -40 -237 -51 -264 -21 -37 41 -50 128 -55 376 -3 130 -8
237 -12 237 -3 0 -41 -17 -82 -38z"/>
<path d="M4638 7183 c-226 -216 -615 -707 -950 -1202 -65 -96 -118 -179 -118
-184 0 -5 21 -28 46 -50 32 -28 42 -43 35 -50 -8 -8 -25 3 -60 37 l-48 48
-135 -214 c-74 -117 -156 -250 -184 -296 -40 -68 -53 -82 -69 -78 -79 20 -282
36 -444 36 -211 0 -322 -14 -441 -57 -93 -33 -167 -101 -193 -177 -21 -60 -22
-157 -3 -218 l13 -45 -54 -27 c-66 -32 -146 -105 -181 -166 -52 -88 -29 -213
62 -340 l34 -47 -67 -55 c-107 -87 -171 -197 -171 -292 0 -74 43 -204 97 -289
23 -37 23 -37 5 -75 -89 -175 -72 -361 46 -509 39 -48 126 -128 181 -163 l23
-15 -21 -110 c-11 -61 -22 -128 -25 -150 -5 -39 -4 -37 32 30 47 89 102 165
118 165 28 0 23 -22 -20 -80 -147 -199 -150 -371 -9 -514 240 -243 925 -450
1913 -575 232 -30 505 -55 522 -49 18 7 292 327 285 334 -2 2 -24 9 -48 14
-36 7 -29 8 36 4 95 -5 90 -1 -30 26 -116 25 -72 20 265 -35 1892 -305 3063
-344 3203 -105 18 30 50 187 74 360 22 157 25 723 5 895 -24 208 -53 400 -88
572 -39 195 -112 494 -123 506 -5 5 -35 1 -67 -7 -379 -97 -853 -118 -1326
-60 -213 26 -248 33 -248 55 0 10 2 19 4 19 3 0 65 -9 138 -19 497 -72 985
-60 1378 34 92 22 110 30 106 43 -112 368 -164 516 -281 812 -126 316 -199
476 -216 472 -8 -2 -63 -17 -124 -33 -247 -64 -495 -92 -815 -91 -251 1 -439
15 -452 34 -15 25 -8 30 35 24 100 -14 616 -18 747 -7 206 18 545 83 591 112
11 7 -14 65 -113 261 -298 591 -577 1024 -876 1356 -46 50 -88 92 -93 92 -6 0
-42 -22 -82 -49 -90 -60 -296 -180 -399 -232 -75 -38 -77 -39 -72 -71 22 -167
87 -556 139 -843 35 -192 67 -366 70 -385 5 -26 4 -31 -4 -20 -6 8 -11 10 -11
4 0 -6 32 -184 70 -394 39 -211 69 -388 67 -393 -3 -10 -121 181 -184 300 -21
40 -41 73 -45 73 -10 0 48 -133 142 -327 99 -203 105 -223 179 -588 28 -137
53 -261 56 -274 5 -21 3 -23 -17 -17 -13 4 -171 45 -353 91 -382 97 -817 195
-1160 260 -132 25 -252 48 -267 51 -21 4 -28 2 -28 -9 0 -9 4 -17 8 -19 5 -1
-102 -475 -237 -1052 -169 -719 -247 -1036 -249 -1010 l-4 39 -14 -25 -14 -25
6 32 c6 31 6 31 -55 48 -34 10 -61 22 -61 27 0 5 71 181 158 391 126 304 164
406 186 501 15 65 25 120 23 122 -2 2 -95 -218 -206 -489 -112 -270 -207 -496
-211 -500 -11 -13 -730 65 -999 108 -221 36 -308 59 -469 126 -454 188 -658
354 -692 564 -13 83 -2 152 42 257 20 47 21 47 47 34 52 -28 802 -269 809
-261 3 2 -1 7 -9 10 -8 2 -88 30 -179 61 -91 31 -261 92 -378 135 -116 43
-219 79 -227 79 -31 0 -114 145 -140 247 -22 83 -19 131 11 191 31 62 124 159
188 197 45 26 47 26 88 11 24 -8 144 -45 268 -80 124 -36 306 -92 405 -126 99
-33 184 -60 190 -60 63 3 -743 288 -868 308 -63 10 -65 11 -129 114 -47 77
-66 153 -49 207 18 61 100 144 183 186 39 19 77 35 84 35 8 0 14 5 14 11 0 7
11 9 27 6 16 -3 179 -30 363 -61 311 -53 528 -95 575 -112 14 -5 17 -4 10 3
-5 6 -108 36 -227 67 -328 86 -552 126 -700 126 -65 0 -69 1 -80 28 -6 15 -13
61 -16 103 -3 66 -1 82 21 125 32 62 58 86 127 118 116 53 173 61 455 61 276
0 401 -13 544 -57 184 -56 584 -308 1140 -717 232 -170 211 -158 211 -122 0
27 -18 43 -217 188 -403 294 -707 497 -906 603 l-96 51 41 82 c84 169 378 634
621 982 213 306 563 759 678 880 l39 41 -17 77 c-10 42 -21 77 -26 77 -4 0
-44 -35 -89 -77z m1569 -1685 c-3 -8 -6 -5 -6 6 -1 11 2 17 5 13 3 -3 4 -12 1
-19z m-1510 -1204 c-3 -3 -12 -4 -19 -1 -8 3 -5 6 6 6 11 1 17 -2 13 -5z m253
-54 c242 -57 441 -108 424 -109 -10 -1 -635 145 -659 154 -42 15 53 -3 235
-45z m467 -116 c-3 -3 -12 -4 -19 -1 -8 3 -5 6 6 6 11 1 17 -2 13 -5z m40 -10
c-3 -3 -12 -4 -19 -1 -8 3 -5 6 6 6 11 1 17 -2 13 -5z m40 -10 c-3 -3 -12 -4
-19 -1 -8 3 -5 6 6 6 11 1 17 -2 13 -5z m-1191 -2156 c68 -12 122 -23 120 -25
-7 -8 -291 40 -301 50 -7 6 1 8 23 3 18 -3 89 -16 158 -28z m177 -35 c-7 -2
-21 -2 -30 0 -10 3 -4 5 12 5 17 0 24 -2 18 -5z m60 -10 c-7 -2 -21 -2 -30 0
-10 3 -4 5 12 5 17 0 24 -2 18 -5z m50 -10 c-7 -2 -19 -2 -25 0 -7 3 -2 5 12
5 14 0 19 -2 13 -5z m60 -10 c-7 -2 -19 -2 -25 0 -7 3 -2 5 12 5 14 0 19 -2
13 -5z m60 -10 c-7 -2 -21 -2 -30 0 -10 3 -4 5 12 5 17 0 24 -2 18 -5z"/>
<path d="M3584 5923 c-33 -42 -76 -99 -96 -126 -36 -46 -49 -83 -29 -75 10 3
194 278 187 278 -2 0 -30 -35 -62 -77z"/>
</g>
</svg>
