<?xml version="1.0" standalone="no"?>
<!DOCTYPE svg PUBLIC "-//W3C//DTD SVG 20010904//EN"
 "http://www.w3.org/TR/2001/REC-SVG-20010904/DTD/svg10.dtd">
<svg version="1.0" xmlns="http://www.w3.org/2000/svg"
 width="34.000000pt" height="50.000000pt" viewBox="0 0 34.000000 50.000000"
 preserveAspectRatio="xMidYMid meet">

<g transform="translate(0.000000,50.000000) scale(0.100000,-0.100000)"
fill="#000000" stroke="none">
<path d="M99 457 c-18 -12 -44 -38 -56 -56 -22 -32 -23 -43 -23 -217 0 -202 0
-200 59 -169 46 23 61 69 61 184 0 96 1 101 19 90 22 -14 49 -6 58 17 3 9 1
25 -6 35 -18 30 6 23 40 -10 23 -23 29 -38 29 -71 0 -23 -5 -51 -11 -63 -11
-20 -10 -20 16 3 58 52 72 142 32 201 -53 79 -148 103 -218 56z"/>
</g>
</svg>
